<svg width="243" height="270" viewBox="0 0 243 270" fill="none" xmlns="http://www.w3.org/2000/svg">
<g clip-path="url(#clip0_1_67)">
<path d="M104.82 265.293L80.0458 250.992V203.311L121.393 226.133L162.739 203.311V250.992L137.966 265.293C132.928 268.205 127.212 269.738 121.393 269.737C115.574 269.738 109.858 268.205 104.82 265.293ZM210.632 89.8089C210.633 88.5548 210.303 87.3227 209.676 86.2366C209.049 85.1504 208.147 84.2485 207.06 83.6217C205.974 82.9948 204.742 82.665 203.488 82.6656C202.234 82.6661 201.002 82.9969 199.916 83.6247L121.453 127.895L42.8668 83.6258C41.7811 82.9983 40.5493 82.6678 39.2953 82.6674C38.0413 82.667 36.8093 82.9968 35.7232 83.6236C34.6371 84.2504 33.7352 85.1521 33.1081 86.2381C32.481 87.3241 32.151 88.556 32.151 89.81V223.344L16.8353 214.502C11.7988 211.591 7.61642 207.407 4.70777 202.37C1.79912 197.332 0.266486 191.618 0.263672 185.801V84.1989C0.266383 78.3814 1.79911 72.6669 4.70806 67.6289C7.61701 62.5909 11.7999 58.4065 16.8368 55.4958L104.821 4.70631C109.858 1.79494 115.574 0.262115 121.393 0.262115C127.212 0.262115 132.928 1.79494 137.966 4.70631L225.95 55.4958C230.987 58.4059 235.171 62.5902 238.08 67.6283C240.989 72.6665 242.521 78.3813 242.523 84.1989V185.801C242.52 191.618 240.987 197.332 238.078 202.37C235.169 207.407 230.985 211.591 225.948 214.5L210.632 223.342V89.8089Z" fill="#44C9F6"/>
</g>
<defs>
<clipPath id="clip0_1_67">
<rect width="242.785" height="270" fill="white"/>
</clipPath>
</defs>
</svg>
